<?xml version="1.0" encoding="UTF-8"?>
<svg id="Layer_2" data-name="Layer 2" xmlns="http://www.w3.org/2000/svg" viewBox="0 0 130.38 160.82">
  <defs>
    <style>
      .cls-1 {
        fill: none;
        stroke: #231f20;
        stroke-miterlimit: 10;
      }

      .cls-2 {
        fill: #f15a29;
      }

      .cls-2, .cls-3, .cls-4, .cls-5, .cls-6 {
        stroke-width: 0px;
      }

      .cls-3 {
        fill: #fff;
      }

      .cls-4 {
        fill: #231f20;
      }

      .cls-5 {
        fill: #4f1518;
      }

      .cls-6 {
        fill: #be1e2d;
      }
    </style>
  </defs>
  <g id="Layer_1-2" data-name="Layer 1">
    <g>
      <g>
        <path class="cls-2" d="m22.62,33.35l.09.03c.02,2.67.09,4.67,2.77,6.11,1.97,1.06,4.56,1.6,6.75,1.83,4.26.46,9.71,0,12.75-2.99,3.53-3.48,2.31-6.99-1.57-9.9-3.96-2.97-7.95-3.08-12.65-2.04-3.59.79-7.01,3.5-8.14,6.96Zm26.8,34.28l-28.61-1.24h-.14c.83.83,1.39,2.07,1.93,3.07.63,1.17,1.44,2.21,2.18,3.33.62.95,1.3,1.89,2.06,2.75,1.28,1.45,2.78,2.68,4.63,3.39,1.14.43,2.39.79,3.68,1.01,1.59.29,3.23.38,4.74.15,1.08-.16,1.91-.63,2.56-1.28,1.28-1.28,1.91-3.24,2.53-4.91.83-2.23,2.09-4.66,4.14-6.08.17-.06.34-.12.51-.17h-.23Zm-31.54,28.68h-5.99c-.46-4.14.77-8.45.74-12.64-.02-2.82-.17-5.66-.34-8.4-.86-14.59.16-29.2-1.29-43.74-.82-8.2-.69-18.24,6.36-23.86,3.17-2.53,7.4-3.76,11.4-4.62,4.74-1,8.98-2.39,13.91-2.29l.03-.22c5.22.85,10.43,7.22,13.01,11.27,3.84,6.04,3.84,12.91,3.89,19.71.1,13.47-.08,26.86.02,40.27.06,8.22.67,16.28.73,24.52h-.2s-42.26,0-42.26,0Z"/>
        <path class="cls-6" d="m48.22,97.16c-2.33,0-4.65.16-7.02.12-6.23-.07-12.39-.55-18.64-.67-1.56-.03-3.12-.15-4.68-.3h42.26c.06.06.11.11.16.17l-.03.03c-3.29.07-6.47.93-9.82.72-.75-.05-1.49-.07-2.23-.06Z"/>
        <path class="cls-3" d="m49.64,67.64c-.17.05-.34.11-.51.17l.28-.18h.23Z"/>
        <path class="cls-2" d="m20.81,66.39l28.61,1.24-.28.18c-1.57.56-3.07,1.44-4.48,2.21-.68.37-1.41.68-2.14.96-.96.37-1.94.69-2.89,1.06-.75.3-1.47.55-2.21.72-.93.23-1.88.35-2.96.32-.82-.02-1.69.01-2.5-.17h0s0,0,0,0c-.15-.03-.31-.08-.45-.13-1.32-.47-2.55-1.26-3.75-2.09-1.05-.72-2.08-1.46-3.13-2.05-1.15-.64-2.45-2.19-3.81-2.25Z"/>
        <path class="cls-5" d="m49.14,67.81c-2.05,1.42-3.32,3.85-4.14,6.08-.62,1.67-1.25,3.63-2.53,4.91l-.07-.06c.35-1.12.02-3,.15-4.26.11-1.03-.02-2.4-.02-3.47v-.04c.72-.28,1.44-.58,2.12-.96,1.41-.78,2.92-1.66,4.48-2.21Z"/>
        <path class="cls-6" d="m35.75,40.24c-.38-.04-.75-.07-1.12-.07-.9-.01-2.85-.57-3.56-.07.79.29,1.89.43,2.72.48.72.05,1.67.24,1.96-.34Zm-1.07-5.57c.01,1.68-.84,2.85-2.25,3.65-2.25,1.29,2.8,1.87,1.46-.3.52-.11,1.16.71,1.87,1.1-.16-.58-.46-1.15-.66-1.69-.36-.94-.41-1.77-.42-2.76Zm8.72-6.24c3.87,2.9,5.1,6.42,1.57,9.9-3.03,2.99-8.48,3.45-12.75,2.99-2.19-.24-4.78-.77-6.75-1.83-2.68-1.44-2.75-3.44-2.77-6.11l-.09-.03c1.13-3.46,4.55-6.16,8.14-6.96,4.7-1.05,8.69-.93,12.65,2.04Z"/>
        <path class="cls-4" d="m42.53,71.02c0,1.06.13,2.43.02,3.47-.13,1.26.2,3.14-.15,4.26-.92-.76-1.54-1.75-2.34-2.61-.96-1.01-1.85-1.81-2.53-3.03l-.1-.34c.73-.17,1.45-.42,2.21-.72.95-.38,1.93-.7,2.89-1.06v.04Z"/>
        <path class="cls-5" d="m42.4,78.75l.07.06c-.66.65-1.48,1.12-2.56,1.28-1.51.22-3.15.14-4.74-.15l.1-.55c.59-.94.64-2.39,1.04-3.46.34-.92.72-2.02,1.24-2.83.69,1.23,1.57,2.02,2.53,3.03.8.85,1.42,1.85,2.34,2.61Z"/>
        <path class="cls-4" d="m37.42,72.76l.1.34c-.52.8-.9,1.91-1.24,2.83-.4,1.07-.45,2.52-1.04,3.46-1.69-1.76-2.45-4.28-3.29-6.48.82.18,1.68.16,2.5.17,1.08.02,2.03-.09,2.96-.32Z"/>
        <path class="cls-6" d="m35.11,37.43c.2.54.5,1.11.66,1.69-.71-.39-1.35-1.21-1.87-1.1,1.34,2.17-3.71,1.58-1.46.3,1.4-.8,2.26-1.97,2.25-3.65.01.99.06,1.82.42,2.76Z"/>
        <path class="cls-5" d="m35.25,79.39l-.1.55c-1.29-.22-2.54-.58-3.68-1.01-1.85-.71-3.35-1.94-4.63-3.39l1.42-.3c.06.09.12.16.18.19.8.41,2.75-2.26,3.5-2.53h0c.84,2.2,1.6,4.73,3.29,6.48Z"/>
        <polygon class="cls-2" points="31.96 72.91 31.96 72.91 31.95 72.91 31.96 72.91"/>
        <path class="cls-4" d="m31.5,72.78c.15.05.3.1.45.13-.75.27-2.71,2.93-3.5,2.53-.07-.04-.12-.1-.18-.19-.53-.85-.66-4.01-.52-4.55,1.21.83,2.43,1.62,3.75,2.09Z"/>
        <path class="cls-5" d="m28.27,75.24l-1.42.3c-.76-.87-1.44-1.81-2.06-2.75-.74-1.12-1.54-2.16-2.18-3.33-.55-1-1.1-2.24-1.93-3.07h.14c1.36.06,2.66,1.61,3.81,2.25,1.05.59,2.08,1.33,3.13,2.05-.14.54,0,3.7.52,4.55Z"/>
      </g>
      <g>
        <path class="cls-1" d="m42.66.76c-4.92-.1-9.17,1.29-13.91,2.29-4,.85-8.22,2.09-11.4,4.62-7.04,5.62-7.17,15.66-6.36,23.86,1.45,14.54.43,29.14,1.29,43.74.17,2.75.32,5.58.34,8.4.04,4.2-1.2,8.5-.74,12.64"/>
        <path class="cls-1" d="m42.38.49c.1.02.21.03.31.05,5.22.85,10.43,7.22,13.01,11.27,3.84,6.04,3.84,12.91,3.89,19.71.1,13.47-.08,26.86.02,40.27.06,8.22.67,16.28.73,24.52"/>
        <polyline class="cls-1" points="11.89 96.31 17.88 96.31 60.14 96.31 60.34 96.31"/>
        <path class="cls-1" d="m11.86,96.05c-.53,3.96-1.5,6.37-4.02,9.3-1.12,1.3-2.21,2.76-3.07,4.26-1.36,2.38-.85,3.86,1.66,5.25,4.45,2.45,8.78,4.95,11.3,9.45,2.19,3.9,1.07,7.47-3.01,9.51-2.97,1.48-5.93,2.92-8.36,5.14-.87.8-4.99,5.09-5.96,3.88"/>
        <path class="cls-1" d="m33.33,97.12c-7,6.42-11.4,16.91-9.9,26.18.75,4.53,1.68,9.31,4.34,13.27,2.13,3.19,7.31,5.91,7.34,10.15.03,6.97-10.26,9.39-14.12,13.77"/>
        <path class="cls-1" d="m48.22,97.16h0c4.28,3.17,8.35,5.31,11.23,9.91,2.55,4.09,3.54,10.29.5,14.22-3.43,4.41-11.14-.19-16.2,1.78-7.53,2.94-.08,9.53,2.69,13,3.97,4.97,6.43,9.82,9.29,15.32,0,0,11.14-2.91,23.45-10.38,20.68-12.56,44.61-38,24.33-84.18"/>
        <path class="cls-1" d="m60.13,96.3h0c.06.06.11.12.16.18,5.57,5.69,11.27,11.33,14.48,18.71,3.31,7.57,4.85,17.21,4.26,25.25,0,0,.04.21.14.57,1.09,4.1,9.53,27.51,50.81-25.9"/>
        <path class="cls-1" d="m60.27,96.51c-3.29.07-6.47.93-9.82.72-.75-.05-1.49-.07-2.23-.06-2.33,0-4.65.16-7.02.12-6.23-.07-12.39-.55-18.64-.67-1.56-.03-3.12-.15-4.68-.3-1.66-.15-3.32-.35-4.96-.51"/>
        <path class="cls-1" d="m22.56,33.51c.01-.06.04-.11.06-.16,1.13-3.46,4.55-6.16,8.14-6.96,4.7-1.05,8.69-.93,12.65,2.04,3.87,2.9,5.1,6.42,1.57,9.9-3.03,2.99-8.48,3.45-12.75,2.99-2.19-.24-4.78-.77-6.75-1.83-2.68-1.44-2.75-3.44-2.77-6.11"/>
        <path class="cls-1" d="m18.1,31.41c1.49-1.96,2.24-4.04,4.15-5.78,2.12-1.94,4.76-3.44,7.61-4.19,5.56-1.46,12.82-.36,18.08,1.96,2.7,1.19,4.22,3.95,5.51,6.38"/>
        <path class="cls-1" d="m14.99,26.28c.58-1.48,2.19-2.36,3.32-3.37,1.17-1.03,2.16-2.25,3.32-3.29,2.59-2.32,5.91-2.93,9.44-3.25,5.25-.47,12.42-.69,17.4,1.31,1.92.77,4.05,2.5,5.33,4.08,1.06,1.29,1.6,2.9,2.68,4.22"/>
        <path class="cls-1" d="m23.76,44.33c1.98-.11,4.04.81,6.02.94,2.09.14,4.34.22,6.38-.12,3.79-.63,7.92-1.51,11.39-3.1"/>
        <path class="cls-1" d="m22.68,48.84c1.71,1.23,4.71,1.27,6.73,1.59,2.28.35,4.53.52,6.87.58,4.71.1,8.93-1.17,13.13-2.91"/>
        <path class="cls-1" d="m15.17,50.54c5.46,2.07,10.74,3.06,16.46,3.96,5.78.91,10.92.52,16.59-.46,2.96-.51,5.11-1.72,7.75-2.86"/>
        <path class="cls-1" d="m34.69,34.67c.01,1.68-.84,2.85-2.25,3.65-2.25,1.29,2.8,1.87,1.46-.3.52-.11,1.16.71,1.87,1.1.23.13.47.21.71.2.13-.39-.19-.81-.5-1.06"/>
        <path class="cls-1" d="m35.75,40.24c.05-.08.08-.19.09-.31.02-.27-.01-.54-.08-.81-.16-.58-.46-1.15-.66-1.69-.36-.94-.41-1.77-.42-2.76v-.08"/>
        <path class="cls-1" d="m35.75,40.24c-.38-.04-.75-.07-1.12-.07-.9-.01-2.85-.57-3.56-.07.79.29,1.89.43,2.72.48.72.05,1.67.24,1.96-.34Z"/>
        <path class="cls-1" d="m29.66,40.66c.91-1.57,2.02-3.14,2.84-4.79.85-1.71,1.21-3.39,1.66-5.19.89,3.21,1.52,7.37,4.66,9.51-.98.28-2.03.15-3.07.06"/>
        <path class="cls-1" d="m49.42,67.63c.69-.44,1.47-.75,2.35-.92"/>
        <path class="cls-1" d="m20.48,66.2c.07.06.13.12.19.19.83.83,1.39,2.07,1.93,3.07.63,1.17,1.44,2.21,2.18,3.33.62.95,1.3,1.89,2.06,2.75,1.28,1.45,2.78,2.68,4.63,3.39,1.14.43,2.39.79,3.68,1.01,1.59.29,3.23.38,4.74.15,1.08-.16,1.91-.63,2.56-1.28,1.28-1.28,1.91-3.24,2.53-4.91.83-2.23,2.09-4.66,4.14-6.08"/>
        <path class="cls-1" d="m20.81,66.39c1.36.06,2.66,1.6,3.81,2.25,1.05.59,2.08,1.33,3.13,2.05,1.21.83,2.43,1.62,3.75,2.09.15.05.3.1.45.13h0c.82.19,1.68.16,2.5.18,1.08.02,2.03-.09,2.96-.32.73-.17,1.45-.42,2.21-.72.95-.38,1.93-.7,2.89-1.06.73-.28,1.46-.58,2.14-.96,1.41-.78,2.92-1.66,4.48-2.21.17-.06.34-.12.51-.17"/>
        <line class="cls-1" x1="20.81" y1="66.39" x2="20.67" y2="66.39"/>
        <path class="cls-1" d="m27.75,70.69c-.14.54,0,3.7.52,4.55.06.09.12.16.18.19.8.41,2.75-2.26,3.5-2.53h0s0,0,0,0c.84,2.2,1.6,4.72,3.29,6.48.59-.94.64-2.39,1.04-3.46.34-.92.72-2.02,1.24-2.83.69,1.23,1.57,2.02,2.53,3.03.8.85,1.42,1.85,2.34,2.61.35-1.12.02-3,.15-4.26.11-1.03-.02-2.4-.02-3.47"/>
        <path class="cls-1" d="m56.03,1.06c-1.22,2.53,1.82,7.95,4.15,9.33"/>
        <path class="cls-1" d="m67.48,120.37c-3.91-.12-8.09,3.02-6.63,7.14"/>
      </g>
    </g>
  </g>
</svg>