<?xml version="1.0" encoding="UTF-8"?>
<svg id="Layer_2" data-name="Layer 2" xmlns="http://www.w3.org/2000/svg" viewBox="0 0 148.38 120.54">
  <defs>
    <style>
      .cls-1 {
        fill: none;
        stroke: #231f20;
        stroke-miterlimit: 10;
      }

      .cls-2 {
        fill: #ed1c24;
      }

      .cls-2, .cls-3, .cls-4, .cls-5, .cls-6, .cls-7, .cls-8 {
        stroke-width: 0px;
      }

      .cls-3 {
        fill: #00aeef;
      }

      .cls-4 {
        fill: #e6e7e8;
      }

      .cls-5 {
        fill: #27aae1;
      }

      .cls-6 {
        fill: #939598;
      }

      .cls-7 {
        fill: #231f20;
      }

      .cls-8 {
        fill: #009444;
      }
    </style>
  </defs>
  <g id="Layer_1-2" data-name="Layer 1">
    <g>
      <g>
        <path class="cls-4" d="m96.1,67.58c-.41-.47-.79-.94-1.09-1.45t.02-.01c-1.24-.03-2.53-.29-3.75-.43-1.67-.19-3.47-.31-5.08-.75-.09-.47.68-1.38.94-1.79.33-.53.57-1.11.77-1.71.21-.6.38-1.27.5-1.9.13-.64.38-1.32.13-1.94-.07-.17-.15-.33-.24-.48-.17-.27-.37-.52-.6-.74-.61-.56-1.4-.92-2.23-.96-1.59-.07-2.39,1.62-3.91,1.82-1.05.15-1.27-.67-2.08-1.15-.52-.32-1.78-.64-2.37-.34-.29.27-.6.55-.9.8h.01c.46,1.39,1.2,4.16,1.84,5.47.05.11.11.21.17.32.66,1.21,1.61,2.3,2.39,3.42.8,1.16,1.61,2.32,2.38,3.5.48.74,1.1,1.37,1.67,2.03.22.25.43.5.63.77.37.5.64,1.37.96,2.17.29-.85,1.6-1.99,1.99-2.77.36-.74,1.66-.67,2.32-.59.72.08,2.05.44,2.72.08.44-.25.44-.82.56-1.24.13-.42.31-.66.61-.97.61-.64.76-1.04,1.64-1.16Z"/>
        <path class="cls-8" d="m93.06,57.78c-1.4.11-3.49.02-4.74-.67h-.02c.09.16.17.32.24.49.25.62,0,1.3-.13,1.94-.12.63-.29,1.3-.5,1.9-.2.6-.44,1.18-.77,1.71-.26.41-1.03,1.32-.94,1.79,1.61.44,3.41.56,5.08.75,1.22.14,2.51.4,3.75.43t.02,0c.64-.14,2.2-1,2.65-1.37.46-.39.97-.65,1.53-.87,1.22-.49,2.72-1.99,3.96-2.44-.78-.34-1.58-.65-2.4-.9-.68-.21-1.35-.35-2.07-.44-.19-.02-.97.01-1.07-.12-.13-.16.09-.96.12-1.19.05-.47.13-.93.23-1.39h-.01c-1.51.17-3.4.27-4.93.38Z"/>
        <path class="cls-3" d="m105.13,33.8c.24.02.41,0,.62.09.54.22.31,1.07.25,1.58-.08.64-.15,1.23.2,1.8.56.92,2.15,1.25,3.04.59.65-.5.86-1.45.92-2.32.03-.3.04-.58.04-.83.02-1.15-.06-2.35-.17-3.5-.11-1.2-.27-2.38-.29-3.6-.01-.59-.13-1.19-.12-1.78.01-.53.07-1.05-.1-1.55-.04-.13-.1-.26-.16-.39-.42-.91-1.21-1.83-2.03-2.32-.84-.5-2.36-.73-3.31-.53-1.02.22-2.17,1.18-2.44,2.19-.16.62-.17,1.02-.05,1.65.11.55.23,1.15.24,1.71l-.07.18c.39.23.7.62.98,1,.45.63.49,1.4.9,2.04.25.37.53.7.77,1.07.25.37.35.77.47,1.19.1.34.23.68.26,1.04,0,.21-.04.42-.07.63,0,.01,0,.03,0,.04l.12.02Z"/>
        <path class="cls-8" d="m101.7,26.77c-.24-.14-.52-.23-.85-.22-.42.02-.61.14-.62.58,0,.23.03.46.06.69-.03-.14-.08-.27-.16-.4-.2-.32-.61-.91-.98-1-.36-.1-.96-.01-1.31.12-.43.15-.23.6-.1.92.13.34.15.82.07,1.17-.1-.33-.32-.65-.47-.97-.19-.39-.38-.92-.81-1.09-.74-.29-1.51.4-1.59,1.1-.09.78.15,1.46.32,2.2,0,.02.01.03.01.05.17.69.29,1.42.31,2.13,0,.38-.05.75-.02,1.12.01.17.05.41.05.63h-.01c-.2.21-.33,1.22-.47,1.47-.14.26-.35.49-.54.73-.37.48-.75.99-1.18,1.42-.74.74-1.61,2.25-2.52,2.76.25.07.48.15.69.2,1.36.33,2.74,1.4,4.01,1.92,1.64-1.29,3.34-2.45,4.8-3.93,1.36-1.38,3.41-3.01,4.62-4.63.03-.21.08-.42.07-.63-.03-.36-.16-.7-.26-1.04-.12-.42-.22-.82-.47-1.19-.24-.37-.52-.7-.77-1.07-.41-.64-.45-1.41-.9-2.04-.28-.38-.59-.77-.98-1Zm-1.33,1.78c0-.23-.03-.46-.07-.69.07.22.09.45.07.69Z"/>
        <path class="cls-5" d="m38.86,119.56c-.89-1.43-1.37-3.93-.86-5.55.52-1.67,2.31-2.85,3.17-4.33l.33-.07c-.53-.46-1.1-.84-1.62-.98-2.92-.76-4.52,2.86-5.8,4.7-1.3,1.87-.55,7.2,3.02,6.42.59.07,1.16.14,1.73.19l.03-.38Z"/>
        <path class="cls-5" d="m.55,104.23c-.24,2,.38,3.98,1.97,5.31,1.27,1.06,3,1.37,4.52,1.87.26.09.53.16.79.23l.02-.07c-1.29-1.84-1.57-4.38-.66-6.45.42-.95.88-1.85,1.46-2.71.51-.75,1.42-1.34,1.87-2.09v-.05s-.08-.02-.12-.03c-2.16-.58-4.81-.74-6.93.08-.88.33-1.69.64-2.29,1.4-.57.72-.53,1.63-.63,2.51Z"/>
        <path class="cls-6" d="m7.19,105.12c-.91,2.07-.63,4.61.66,6.45l-.02.07c1.48.37,3.05.49,4.58.66,1.24.14,3.86.22,4.8-.78,1.08-1.14,1.88-3.02,2.56-4.42.27-.56.5-1.14.74-1.73h-.01c-.36-.77-1.21-1.97-1.58-2.74-.36-.75-.57-1.57-.8-2.37-.25-.88-.56-1.67-1.01-2.47-.4-.69-.91-1.37-1.1-2.16h-.01c-.21.3-.44.6-.67.89-1.23,1.52-2.48,4.26-4.8,3.75v.05c-.46.75-1.37,1.34-1.88,2.09-.58.86-1.04,1.76-1.46,2.71Z"/>
        <path class="cls-6" d="m16,95.62h.01c.19.8.7,1.48,1.1,2.17.45.8.76,1.59,1.01,2.47.23.8.44,1.62.8,2.37.37.77,1.22,1.97,1.58,2.74h.01c.43-1.1.87-2.2,1.56-3.18,1.08-1.53,2.47-2.8,3.74-4.19l-.1-.09c-.58-.62-1.41-.95-2.08-1.46-.6-.45-1.15-.89-1.79-1.28-1.4-.85-2.67-1.74-4.33-1.94l-.03-.02c-.46.83-.95,1.65-1.48,2.41Z"/>
        <path class="cls-2" d="m17.48,93.21l.03.02c1.66.2,2.93,1.09,4.33,1.94.64.39,1.19.83,1.79,1.28.67.51,1.5.84,2.08,1.46l.1.09c.26-.28.51-.58.76-.88.16-.2.32-.39.49-.58l-.09-.08c-1.35-.87-2.67-1.7-4.08-2.47-1.36-.74-3.1-1.72-4.68-1.77l-.14-.08c-.19.35-.39.71-.59,1.07Z"/>
        <path class="cls-6" d="m18.07,92.14l.14.08c1.58.05,3.32,1.03,4.68,1.77,1.41.77,2.73,1.6,4.08,2.47l.09.08c2.14-2.51,4.49-4.34,7.52-5.83.16-.08.31-.15.46-.23-2.09-1-3.93-2.83-6.03-3.81-1.93-.9-4.46-.99-6.58-1.22-1.52,1.67-2.77,3.8-3.84,5.74-.17.31-.34.63-.52.95Z"/>
        <path class="cls-2" d="m22.85,85c-.14.15-.29.3-.42.45,2.12.23,4.65.32,6.58,1.22,2.1.98,3.94,2.81,6.03,3.81,1.46-.75,2.79-1.53,4.37-2.07,1.24-.42,3.7-1.08,4.15-2.46-.05.29-.12.57-.22.84l2.28.56c.2-.65.36-1.31.44-1.98.14-1.17-.06-1.93-1.03-2.68-.77-.59-1.59-1.09-2.53-1.32-1.9-.47-3.25.24-5.09.58-1.82.34-3.72.39-5.55.34.08-.66,1.31-1.48,1.84-1.82-.86.26-2.3.26-3.18.16-.88-.11-2.02.25-2.87.08-1.89.94-3.33,2.8-4.8,4.29Z"/>
        <path class="cls-4" d="m55.86,68.08c-.87.09-1.72.73-2.51,1.07-3.4,1.46-6.93,2.55-10.32,4.02-2.72,1.18-5.27,2.69-7.9,4.08-2.43,1.29-5.02,2.23-7.48,3.46.85.17,1.99-.19,2.87-.08.88.1,2.32.1,3.18-.16.82-.53,1.78-.81,2.61-1.31,1.72-1.04,3.46-1.74,5.32-2.46,1.96-.75,3.97-1.15,6.02-1.54,1.86-.35,3.52-2.03,5-3.17.81-.61,1.68-1.2,2.35-1.95.62-.7.67-1.49,1.29-2.18-.14.08-.28.16-.43.22Z"/>
        <path class="cls-6" d="m31.86,82.29c1.83.05,3.73,0,5.55-.34,1.84-.34,3.19-1.05,5.09-.58.94.23,1.76.73,2.53,1.32.97.75,1.17,1.51,1.03,2.68-.08.67-.24,1.33-.44,1.98-.33,1.09-.75,2.16-1.01,3.25-.2.88-.4,1.75-.56,2.64-.13.78-.74,2.76-.46,3.45,1-.41,2.01-.84,2.96-1.35,1.15-.62,2.9-1.22,4.16-1.53.87-.83,1.82-1.62,2.72-2.38,1.28-1.06,2.43-2.2,3.7-3.26,1.13-.94,2.28-1.81,3.48-2.67,1.07-.76,2.38-1.38,3.36-2.27.32-.29.23-.46.43-.77.17-.28.31-.27.58-.23-1.53-.24-3.53-.98-4.9-1.49-1.46-.54-2.9-1.07-4.37-1.55-.48-.15-.65-.13-.59-.66.04-.4.12-.8.23-1.17.21-.73.6-1.4.84-2.12.46-1.4.74-2.86,1.22-4.24.5-1.43.81-2.86,1.21-4.29-.86.21-1.57.73-2.33,1.15-.62.69-.67,1.48-1.29,2.18-.67.75-1.54,1.34-2.35,1.95-1.48,1.14-3.14,2.82-5,3.17-2.05.39-4.06.79-6.02,1.54-1.86.72-3.6,1.42-5.32,2.46-.83.5-1.79.78-2.61,1.31-.53.34-1.76,1.16-1.84,1.82Z"/>
        <path class="cls-6" d="m43.24,111.44c-.44-.51-1.06-1.23-1.74-1.83l-.33.07c-.86,1.48-2.65,2.66-3.17,4.33-.51,1.62-.03,4.12.86,5.55l-.03.38c1.47.13,2.91.16,4.43-.12,1.71-.32,4.36-.8,5.5-2.18.63-.77.57-1.89.68-2.85.14-1.2.15-2.25-.01-3.44-.16-1.14-.23-2.37-.17-3.58-.89-.71-2.4-1.63-3.37-2.23-.68-.42-1.37-.84-2.04-1.3-1.34.62-2.76,1.33-3.74,2.42l-.33.25c.15.2.32.4.51.58.57.55,1.15,1.14,1.67,1.74.56.64.86,1.46,1.32,2.18l-.04.03Z"/>
        <path class="cls-6" d="m38.08,97.56c-.21,1.82-.42,3.6.02,5.4.33,1.4.79,2.82,1.68,3.95l.33-.25c.98-1.09,2.4-1.8,3.74-2.42-.83-.56-1.61-1.18-2.27-1.92-1.31-1.46-2.21-3.21-3.43-4.75h-.07Z"/>
        <path class="cls-2" d="m50.71,93.81c-1.26.31-3.01.91-4.16,1.53-.95.51-1.96.94-2.96,1.35-.28-.69.33-2.67.46-3.45.16-.89.36-1.76.56-2.64.26-1.09.68-2.16,1.01-3.25l-2.28-.56c-.65,1.93-2.29,3.57-3.27,5.31-.47.85-.94,1.7-1.37,2.56-.45.88-.49,1.8-.6,2.77-.01.04-.01.09-.02.13h.07c1.22,1.55,2.12,3.3,3.43,4.76.66.74,1.44,1.36,2.27,1.92l.57-.27c1.57-.73,3.84-1.94,5.66-1.86l.09.02c.21-1.15.47-2.29.9-3.33.11-.25.23-.5.36-.73-.47.14-1.7-.23-2.18-.38-.74-.23-.46-.53-.24-1.22.33-1.01,1.36-1.67,1.7-2.66Z"/>
        <path class="cls-6" d="m44.42,103.97l-.57.27c.67.46,1.36.88,2.04,1.3.97.6,2.48,1.52,3.37,2.23.04-.88.15-1.75.34-2.58.22-.98.37-2.02.57-3.06l-.09-.02c-1.82-.08-4.09,1.13-5.66,1.86Z"/>
        <path class="cls-4" d="m65.29,82.28c-.11-.01-.2-.03-.28-.05.1.03.19.04.28.05Zm-.31-.05c-.27-.04-.41-.05-.58.23-.2.31-.11.48-.43.77-.98.89-2.29,1.51-3.36,2.27-1.2.86-2.35,1.73-3.48,2.67-1.27,1.06-2.42,2.2-3.7,3.26-.9.76-1.85,1.55-2.72,2.38-.34.99-1.37,1.65-1.7,2.66-.22.69-.5.99.24,1.22.48.15,1.71.52,2.18.38,1.02-1.79,2.83-3.17,4.57-4.14,1.09-.6,2.26-1.08,3.34-1.7,1.31-.75,2.37-1.84,3.62-2.69,2.24-1.52,4.66-2.74,6.94-4.17,2.19-1.36,4.41-2.71,6.66-4,1.83-1.05,3.84-1.83,5.7-2.85v-.02c-.82-.1-2.17-.38-2.98-.47-.89-.1-1.79-.21-2.66-.36-3.51-.59-5.86-3.39-7.23-6.53-.57-1.32-1.19-2.88-1.28-4.35-.1-1.73.52-3.91.21-5.66-.29.13-.57.25-.85.39-1.07.53-2.08,1.17-3.15,1.7-.99.5-2.04.96-2.97,1.58-.64.43-1.68,1.63-2.53,1.63l-.2.28c-.4,1.43-.71,2.86-1.21,4.29-.48,1.38-.76,2.84-1.22,4.24-.24.72-.63,1.39-.84,2.12-.11.37-.19.77-.23,1.17-.06.53.11.51.59.66,1.47.48,2.91,1.01,4.37,1.55,1.37.51,3.37,1.25,4.9,1.49Z"/>
        <path class="cls-2" d="m85.1,76.67c.7-.39,1.58-1.1,2.2-.79-.45-.31-.76-.96-1.04-1.65-.32-.8-.59-1.67-.96-2.17-.2-.27-.41-.52-.63-.77-.87-.44-1.85-.14-2.76-.52-.88-.37-1.64-.89-2.5-1.3-.38-.19-.82-.33-1.19-.53-.47-.27-.41-.51-.45-1.03-.13-1.86.17-3.68.39-5.53l.07-.04c-.06-.11-.12-.21-.17-.32-.64-1.31-1.38-4.08-1.84-5.46h-.01c-1.6,1.4-3.29,2.65-5.26,3.53-.86.38-1.76.68-2.63,1.04.31,1.75-.31,3.93-.21,5.66.09,1.47.71,3.03,1.28,4.35,1.37,3.14,3.72,5.94,7.23,6.53.87.15,1.77.26,2.66.36.81.09,2.16.37,2.97.47v.02c.34-.18.66-.36.98-.56.38-.24,1.48-.97,1.87-1.29Z"/>
        <path class="cls-6" d="m78.03,54.88c-.3.29-.61.58-.92.87.59-.3,1.85.02,2.37.34.81.48,1.03,1.3,2.08,1.15,1.52-.2,2.32-1.89,3.91-1.82.83.04,1.62.4,2.23.96l.02-.31c.12-1,.32-1.98.34-2.98.02-.99.22-1.89.66-2.78-1.56-.18-4.25-1.02-5.79-1.31-.67.8-1.22,1.67-1.82,2.54-.86,1.23-2.01,2.31-3.08,3.34Z"/>
        <path class="cls-7" d="m78.16,62.38c-.22,1.85-.52,3.67-.39,5.53.04.52-.02.76.45,1.03.37.2.81.34,1.19.53.86.41,1.62.93,2.5,1.3.91.38,1.89.08,2.76.52-.57-.66-1.19-1.29-1.67-2.03-.77-1.18-1.58-2.34-2.38-3.5-.78-1.12-1.73-2.21-2.39-3.42l-.07.04Z"/>
        <path class="cls-8" d="m78.14,95.94c-1.06,1.99-2.47,4.49.35,5.65,2.19.9,4.59.13,6.81-.17,2.23-.31,4.4-.66,6.62-1.04,1.3-.23,2.56-.64,3.87-.87,1.18-.21,2.54-.46,3.46-1.24,1.08-.92,1.93-1.3,3.25-1.71,1.39-.44,2.91-.76,4.22-1.4.69-.33,1.3-.58,1.41-1.41.07-.55,0-.91-.49-1.2-.97-.57-2.39-.09-3.36.27-.45.17-.9.31-1.38.38.88-.56,1.85-.98,2.75-1.51.41-.23,1.87-.92,1.86-1.48,0-.89-1.9-.61-2.38-.44-1.01.34-1.98.86-2.9,1.39.85-1.06,1.85-1.59,3.05-2.13.85-.38,1.67-.65,1.71-1.74.05-1.55-1.54-1.38-2.52-.88-1.15.61-2.14,1.43-3.31,1.98-.01-1.39,2.83-3.06,2.34-4.6-.31-.96-1.83-1.03-2.5-.54-.69.5-1.44,1.26-1.88,2-1.11,1.89-1.51,4.07-2.47,6.05-.89,1.85-2.38,3.6-4.26,4.5-1.58.76-4.36,1.45-6.03.59.45-1.13,1.2-2.13,1.62-3.31.44-1.24,1.15-2.37,1.94-3.43,1.45-1.96,2.71-4.24,4.36-6.03l-.17-.15c-1.3-.2-2.61-.14-3.83-.67-1.1-.49-2.27-.9-3.26-1.59-.02.09-.07.19-.14.33-.45.88-1.13,1.76-1.69,2.56-1.34,1.89-2.39,3.97-3.71,5.86-1.35,1.92-2.24,3.93-3.34,5.98Z"/>
        <path class="cls-4" d="m83.33,48.53c-.14.15-.28.31-.4.47,1.54.29,4.23,1.13,5.79,1.31.2-.42.43-.87.68-1.31-.33-1.22.09-3.06.17-4.32-.56-.05-1.38.48-1.9.74-.54.26-1.74.67-2.21,1.09-.01.01-.02.02-.04.03-.7.65-1.43,1.28-2.09,1.99Z"/>
        <path class="cls-2" d="m86.68,78.75c-.36.52-.45,1.03-.13,1.59.29.5.56.52.47.87.99.69,2.16,1.1,3.26,1.59,1.22.53,2.53.47,3.83.67l.17.15c.07-.08.14-.15.21-.23.68-.71,1.4-1.46,2.09-2.25l-.15-.14c-.67-.05-1.44-.52-2.09-.73-.69-.23-1.4-.43-2.1-.62-.79-.22-1.58-.34-2.4-.44-.81-.09-2.37-.43-3.16-.46Z"/>
        <path class="cls-6" d="m89.22,41.75c-.75,1.1-1.44,2.25-2.32,3.29-.44.52-.93,1-1.44,1.47.47-.42,1.67-.83,2.21-1.09.52-.26,1.34-.79,1.9-.74-.08,1.26-.5,3.1-.17,4.32.63-1.13,1.4-2.27,2.34-3.01.77-.61,1.49-1.13,2.13-1.9l.36-.42-.31-.27c-1.29-1.16-3.05-1.57-4.69-1.95l-.17.12c.04.06.09.12.14.17h.02Z"/>
        <path class="cls-6" d="m86.87,78.5c-.08.1-.14.18-.19.25.79.03,2.35.37,3.16.46.82.1,1.61.22,2.4.44.7.19,1.41.39,2.1.62.65.21,1.42.68,2.09.73l.15.14c.91-1.02,1.77-2.08,2.45-3.15.2-.31.36-.68.48-1.09v-.02c.1-.46-1.16-.99-1.51-1.21-.6-.37-1.21-.45-1.85-.13-.51.25-1.1.57-1.55.92-.54.42-.67.96-1,1.49-.22-.74-.82-2.26-1.82-2.39-.11.05-.21.11-.31.17-.7.43-1.26,1.01-1.84,1.58-.65.64-1.91,1.06-2.76,1.19Z"/>
        <path class="cls-6" d="m91.78,75.56c1.46-.8,3.32-1.09,4.88-1.55.97-.29,2.11-.5,3.11-.52-.04-.49-.13-.94-.24-1.33-.53-1.79-2.15-3.13-3.43-4.58-.88.12-1.03.52-1.64,1.16-.3.31-.48.55-.61.97-.12.42-.12.99-.56,1.24-.67.36-2,0-2.72-.08-.66-.08-1.96-.15-2.32.59-.39.78-1.7,1.92-1.99,2.77.28.69.59,1.34,1.04,1.65.03,0,.07.04.1.06,1.02.73.01,1.88-.53,2.56.85-.13,2.11-.55,2.76-1.19.58-.57,1.14-1.15,1.84-1.58.1-.06.2-.12.31-.17Z"/>
        <path class="cls-2" d="m89.46,40.15c-.61.32-.74.94-.4,1.42l.17-.12c1.64.38,3.4.79,4.69,1.95l.31.27c.41-.49.85-.97,1.36-1.37-1.27-.52-2.65-1.59-4.01-1.92-.21-.05-.44-.13-.69-.2-.49-.14-1.03-.24-1.43-.03Z"/>
        <path class="cls-3" d="m92.79,32.13c-.15.7-.01.93.67,1.21.47.2,1.63.44,2.14.46h.01c0-.22-.04-.46-.05-.63-.03-.37.03-.74.02-1.12-.02-.71-.14-1.44-.31-2.13l-.36.08c-1.04.38-1.88,1-2.12,2.13Z"/>
        <path class="cls-4" d="m91.78,75.56c1,.13,1.6,1.65,1.82,2.39.33-.53.46-1.07,1-1.49.45-.35,1.04-.67,1.55-.92.64-.32,1.25-.24,1.85.13.35.22,1.61.75,1.51,1.21.31-1.03.38-2.29.26-3.39-1,.02-2.14.23-3.11.52-1.56.46-3.42.75-4.88,1.55Z"/>
        <path class="cls-8" d="m97.77,58.79c-.03.23-.25,1.03-.12,1.19.1.13.88.1,1.07.12.72.09,1.39.23,2.07.44.82.25,1.62.56,2.4.9.56.24,1.11.49,1.66.73,1.36.61,3.51,1.3,4.95,1.66,1.19-.35,2.37-.82,3.53-1.26,1.44-.56,2.87-1.06,4.31-1.59l-.1-.27c-.84-.76-1.4-1.82-1.99-2.77-.33-.54-.66-1.03-1.04-1.52-.45-.59-.85-.87-.71-1.64.11-.61.53-1.3.31-1.93-.19-.58-.98-1.01-1.53-1.22-.31-.11-.66-.2-.99-.19-.25,0-.63.2-.83.1-.42-.2-.62-1.48-.73-1.89-.22-.76-.54-1.49-.96-2.17-.41-.67-.76-1.44-1.21-2.07l-.07-.12c-1.03.55-2.04,1.11-3.05,1.68-.82.47-1.68.88-2.48,1.39-.63.4-1.37.9-2.12,1.14-.35.63-1,1.92-1.1,2.49-.13.77-.36,1.49-.46,2.27-.13,1.07-.38,2.09-.58,3.14-.1.46-.18.92-.23,1.39Z"/>
        <path class="cls-3" d="m103.28,9.93c.46-.15,1.05-.02,1.54-.11.4-.06.86-.25,1.21-.46.41-.25.76-.81.3-1.19-.34-.28-.94-.33-1.36-.35-.97-.07-1.94-.19-2.91-.28-.67-.06-2.7.29-1.9,1.36.66.87,2.1,1.19,3.16,1.14,0-.03-.02-.05-.03-.07v-.04Z"/>
        <path class="cls-3" d="m100.41.94c-.63.61-.83,1.35-.04,1.92.67.49,1.5.64,2.22,1.02h.03c.29-.24.56-.26.8-.57.23-.3.49-.54.47-.93-.04-.83-.59-1.34-1.33-1.61-.79-.29-1.48-.49-2.15.17Z"/>
        <path class="cls-3" d="m104.17,16.78c.68.11,2.63-.43,2.92-1.07.21-.48-.32-1.03-.64-1.29-.44-.36-.99-.48-1.52-.59-1.05-.23-1.98-.25-3.02.02-.5.14-.97.34-1.2.83-.28.56-.07,1.06.44,1.38.92.61,1.93.66,3.01.79v-.07Z"/>
        <path class="cls-2" d="m107.79,45.29l.07.12c.45.63.8,1.4,1.21,2.07.42.68.74,1.41.96,2.17.11.41.31,1.69.73,1.89.2.1.58-.1.83-.1.33-.01.68.08.99.19.55.21,1.34.64,1.53,1.22.22.63-.2,1.32-.31,1.93-.14.77.26,1.05.71,1.64.38.49.71.98,1.04,1.52.59.95,1.15,2.01,1.99,2.77l.1.27c.88-.32,1.76-.65,2.64-1,1.1-.44,2.23-.77,3.34-1.19.34-.13.67-.26,1.01-.38l-.05-.15c-.29-1.22-1.3-2.35-1.89-3.42-.31-.57-.55-1.19-.86-1.77-.14-.28-.26-.75-.46-.97-.28-.31-.56-.14-.98-.08-1.4.19-3.62-.12-3.74-1.96-.04-.7.82-1.43,1.34-1.85.26-.22.7-.3.67-.6-.02-.29-.59-.82-.77-1.05-1.09-1.49-1.82-3.21-3.18-4.49l-.09-.19c-1.41.66-2.79,1.35-4.19,2.05-.89.44-1.77.89-2.64,1.36Z"/>
        <path class="cls-3" d="m112.2,28.8c.01,1.1.07,2.13.22,3.23.14.92.1,1.89.33,2.79,0,.03,0,.06.02.09.23.85.73,1.85,1.55,2.23.48.23.9.39,1.36.06.46-.35.6-.74.86-1.22.3-.53.47-.93.51-1.56.03-.5-.02-.99-.02-1.48,0-1.05-.12-2.12-.05-3.16.07-1.32-.14-2.66-.38-3.96-.11-.59-.34-.93-.81-1.32-.34-.28-.82-.67-1.27-.75-.2-.04-.4.02-.58.07-.31.3-.45.75-.73,1.09-.32.38-.53.76-.69,1.23-.29.84-.32,1.79-.32,2.66Z"/>
        <path class="cls-8" d="m114.62,41.88l.09.19c1.36,1.28,2.09,3,3.18,4.49.18.23.75.76.77,1.05.03.3-.41.38-.67.6-.52.42-1.38,1.15-1.34,1.85.12,1.84,2.34,2.15,3.74,1.96.42-.06.7-.23.98.08.2.22.32.69.46.97.31.58.55,1.2.86,1.77.59,1.07,1.6,2.2,1.89,3.42l.05.15c.21-.08.43-.15.65-.22.33-.11.7-.19,1.04-.32.52-.67,1.16-2.61,1.36-3.43.25-.97.46-1.94.79-2.89.65-1.84,1.24-3.78,2.07-5.55-1.12-.37-2.8-1.75-3.92-2.11-1.09-.35-2.13-.83-3.21-1.19-1.17-.4-2.41-.62-3.54-1.09-.59-.25-1.06-.76-1.66-.96-.52-.17-.95.03-1.41.24-.74.32-1.46.65-2.18.99Z"/>
      </g>
      <g>
        <path class="cls-1" d="m36.28,119.65c.28.03.55.07.82.1.59.07,1.16.14,1.73.19,1.47.13,2.91.16,4.43-.12,1.71-.32,4.36-.8,5.5-2.18.63-.77.57-1.89.68-2.85.14-1.2.15-2.25-.01-3.44-.16-1.14-.23-2.37-.17-3.58.04-.88.15-1.75.34-2.58.22-.98.37-2.02.57-3.06.21-1.15.47-2.29.9-3.33.11-.25.23-.5.36-.73,1.02-1.79,2.83-3.17,4.57-4.14,1.09-.6,2.26-1.08,3.34-1.7,1.31-.75,2.37-1.84,3.62-2.69,2.24-1.52,4.66-2.74,6.94-4.17,2.19-1.36,4.41-2.71,6.66-4,1.83-1.05,3.84-1.83,5.7-2.85.33-.18.65-.36.97-.56.38-.24,1.48-.97,1.87-1.29.01-.01.03-.02.04-.03"/>
        <path class="cls-1" d="m99.51,76.88c.31-1.03.38-2.29.26-3.39-.04-.49-.13-.94-.24-1.33-.53-1.79-2.15-3.13-3.43-4.58-.41-.47-.79-.94-1.09-1.45"/>
        <path class="cls-1" d="m87.4,75.94c1.02.73.01,1.88-.53,2.56-.08.1-.14.18-.19.25-.36.52-.45,1.03-.13,1.59.29.5.56.52.47.87-.02.09-.07.19-.14.33-.45.88-1.13,1.76-1.69,2.56-1.34,1.89-2.39,3.97-3.71,5.86-1.35,1.92-2.24,3.93-3.34,5.98-1.06,1.99-2.47,4.49.35,5.65,2.19.9,4.59.13,6.81-.17,2.23-.31,4.4-.66,6.62-1.04,1.3-.23,2.56-.64,3.87-.87,1.18-.21,2.54-.46,3.46-1.24,1.08-.92,1.93-1.3,3.25-1.71,1.39-.44,2.91-.76,4.22-1.4.69-.33,1.3-.58,1.41-1.41.07-.55,0-.91-.49-1.2-.97-.57-2.39-.09-3.36.27-.45.17-.9.31-1.38.38.88-.56,1.85-.98,2.75-1.51.41-.23,1.87-.92,1.86-1.48,0-.89-1.9-.61-2.38-.44-1.01.34-1.98.86-2.9,1.39.85-1.06,1.85-1.59,3.05-2.13.85-.38,1.67-.65,1.71-1.74.05-1.55-1.54-1.38-2.52-.88-1.15.61-2.14,1.43-3.31,1.98-.01-1.39,2.83-3.06,2.34-4.6-.31-.96-1.83-1.03-2.5-.54-.69.5-1.44,1.26-1.88,2-1.11,1.89-1.51,4.07-2.47,6.05-.89,1.85-2.38,3.6-4.26,4.5-1.58.76-4.36,1.45-6.03.59.45-1.13,1.2-2.13,1.62-3.31.44-1.24,1.15-2.37,1.94-3.43,1.45-1.96,2.71-4.24,4.36-6.03.07-.08.14-.15.21-.23.68-.71,1.4-1.46,2.09-2.25.91-1.02,1.77-2.08,2.45-3.15.2-.31.36-.68.48-1.09"/>
        <path class="cls-1" d="m84.58,76.9c.15-.03.33-.12.52-.23.7-.39,1.58-1.1,2.2-.79"/>
        <path class="cls-1" d="m37.1,119.75c-3.57.78-4.32-4.55-3.02-6.42,1.28-1.84,2.88-5.46,5.8-4.7.52.14,1.09.52,1.62.98.68.6,1.3,1.32,1.74,1.83l.03.03"/>
        <path class="cls-1" d="m41.17,109.68c-.86,1.48-2.65,2.66-3.17,4.33-.51,1.62-.03,4.12.86,5.55"/>
        <path class="cls-1" d="m43.28,111.41c-.46-.72-.76-1.54-1.32-2.18-.52-.6-1.1-1.19-1.67-1.74-.19-.18-.36-.38-.51-.58-.89-1.13-1.35-2.55-1.68-3.95-.44-1.8-.23-3.58-.02-5.4.01-.04.01-.09.02-.13.11-.97.15-1.89.6-2.77.43-.86.9-1.71,1.37-2.56.98-1.74,2.62-3.38,3.27-5.31.1-.27.17-.55.22-.84-.45,1.38-2.91,2.04-4.15,2.46-1.58.54-2.91,1.32-4.37,2.07-.15.08-.3.15-.46.23-3.03,1.49-5.38,3.32-7.52,5.83-.17.19-.33.38-.49.58-.25.3-.5.6-.76.88-1.27,1.39-2.66,2.66-3.74,4.19-.69.98-1.13,2.08-1.56,3.18-.24.59-.47,1.17-.74,1.73-.68,1.4-1.48,3.28-2.56,4.42-.94,1-3.56.92-4.8.78-1.53-.17-3.1-.29-4.58-.66-.26-.07-.53-.14-.79-.23-1.52-.5-3.25-.81-4.52-1.87-1.59-1.33-2.21-3.31-1.97-5.31.1-.88.06-1.79.63-2.51.6-.76,1.41-1.07,2.29-1.4,2.12-.82,4.77-.66,6.93-.08.04.01.09.02.13.03,2.32.51,3.57-2.23,4.8-3.75.23-.29.46-.59.67-.9.53-.76,1.02-1.58,1.48-2.41.2-.36.4-.72.59-1.07.18-.32.35-.64.52-.95,1.07-1.94,2.32-4.07,3.84-5.74.13-.15.28-.3.42-.45,1.47-1.49,2.91-3.35,4.8-4.29,2.46-1.23,5.05-2.17,7.48-3.46,2.63-1.39,5.18-2.9,7.9-4.08,3.39-1.47,6.92-2.56,10.32-4.02.79-.34,1.64-.98,2.51-1.07"/>
        <path class="cls-1" d="m16.01,95.63c.19.79.7,1.47,1.1,2.16.45.8.76,1.59,1.01,2.47.23.8.44,1.62.8,2.37.37.77,1.22,1.97,1.58,2.74"/>
        <path class="cls-1" d="m10.52,100.32c-.45.75-1.36,1.34-1.87,2.09-.58.86-1.04,1.76-1.46,2.71-.91,2.07-.63,4.61.66,6.45"/>
        <path class="cls-1" d="m25.71,97.91c-.58-.62-1.41-.95-2.08-1.46-.6-.45-1.15-.89-1.79-1.28-1.4-.85-2.67-1.74-4.33-1.94"/>
        <path class="cls-1" d="m26.97,96.46c-1.35-.87-2.67-1.7-4.08-2.47-1.36-.74-3.1-1.72-4.68-1.77"/>
        <path class="cls-1" d="m35.04,90.48c-2.09-1-3.93-2.83-6.03-3.81-1.93-.9-4.46-.99-6.58-1.22-.07,0-.14-.01-.21-.02"/>
        <path class="cls-1" d="m50.08,102.11c-1.82-.08-4.09,1.13-5.66,1.86l-.57.27c-1.34.62-2.76,1.33-3.74,2.42"/>
        <path class="cls-1" d="m38.15,97.57c1.22,1.54,2.12,3.29,3.43,4.75.66.74,1.44,1.36,2.27,1.92.67.46,1.36.88,2.04,1.3.97.6,2.48,1.52,3.37,2.23,0,.01.01.01.01.01"/>
        <path class="cls-1" d="m51.43,98.07c-.47.14-1.7-.23-2.18-.38-.74-.23-.46-.53-.24-1.22.33-1.01,1.36-1.67,1.7-2.66-1.26.31-3.01.91-4.16,1.53-.95.51-1.96.94-2.96,1.35-.28-.69.33-2.67.46-3.45.16-.89.36-1.76.56-2.64.26-1.09.68-2.16,1.01-3.25.2-.65.36-1.31.44-1.98.14-1.17-.06-1.93-1.03-2.68-.77-.59-1.59-1.09-2.53-1.32-1.9-.47-3.25.24-5.09.58-1.82.34-3.72.39-5.55.34.08-.66,1.31-1.48,1.84-1.82.82-.53,1.78-.81,2.61-1.31,1.72-1.04,3.46-1.74,5.32-2.46,1.96-.75,3.97-1.15,6.02-1.54,1.86-.35,3.52-2.03,5-3.17.81-.61,1.68-1.2,2.35-1.95.62-.7.67-1.49,1.29-2.18"/>
        <path class="cls-1" d="m33.7,80.47c-.86.26-2.3.26-3.18.16-.88-.11-2.02.25-2.87.08"/>
        <path class="cls-1" d="m64.98,82.23c-.27-.04-.41-.05-.58.23-.2.31-.11.48-.43.77-.98.89-2.29,1.51-3.36,2.27-1.2.86-2.35,1.73-3.48,2.67-1.27,1.06-2.42,2.2-3.7,3.26-.9.76-1.85,1.55-2.72,2.38-.22.2-.43.41-.63.62"/>
        <path class="cls-1" d="m67.47,82.53c-.73-.13-1.45-.17-2.18-.25-.11-.01-.2-.03-.28-.05"/>
        <path class="cls-1" d="m65.29,82.28c-.09-.01-.18-.02-.28-.05h-.03c-1.53-.24-3.53-.98-4.9-1.49-1.46-.54-2.9-1.07-4.37-1.55-.48-.15-.65-.13-.59-.66.04-.4.12-.8.23-1.17.21-.73.6-1.4.84-2.12.46-1.4.74-2.86,1.22-4.24.5-1.43.81-2.86,1.21-4.29-.86.21-1.57.73-2.33,1.15-.14.08-.28.16-.43.22-.2.1-.4.19-.61.25"/>
        <path class="cls-1" d="m85.46,46.51c.51-.47,1-.95,1.44-1.47.88-1.04,1.57-2.19,2.32-3.29.01-.02.02-.03.03-.05"/>
        <path class="cls-1" d="m58.7,66.42s.08.01.12.01c.85,0,1.89-1.2,2.53-1.63.93-.62,1.98-1.08,2.97-1.58,1.07-.53,2.08-1.17,3.15-1.7.28-.14.56-.26.85-.39.87-.36,1.77-.66,2.63-1.04,1.97-.88,3.66-2.13,5.26-3.54.3-.25.61-.53.9-.8.31-.29.62-.58.92-.87,1.07-1.03,2.22-2.11,3.08-3.34.6-.87,1.15-1.74,1.82-2.54.12-.16.26-.32.4-.47.66-.71,1.39-1.34,2.09-1.99"/>
        <path class="cls-1" d="m68.32,61.13c.31,1.75-.31,3.93-.21,5.66.09,1.47.71,3.03,1.28,4.35,1.37,3.14,3.72,5.94,7.23,6.53.87.15,1.77.26,2.66.36.81.09,2.16.37,2.97.47"/>
        <path class="cls-1" d="m87.4,75.94s-.07-.05-.1-.06c-.45-.31-.76-.96-1.04-1.65-.32-.8-.59-1.67-.96-2.17-.2-.27-.41-.52-.63-.77-.57-.66-1.19-1.29-1.67-2.03-.77-1.18-1.58-2.34-2.38-3.5-.78-1.12-1.73-2.21-2.39-3.42-.06-.11-.12-.21-.17-.32-.64-1.31-1.38-4.08-1.84-5.46"/>
        <path class="cls-1" d="m78.16,62.38c-.22,1.85-.52,3.67-.39,5.53.04.52-.02.76.45,1.03.37.2.81.34,1.19.53.86.41,1.62.93,2.5,1.3.91.38,1.89.08,2.76.52"/>
        <path class="cls-1" d="m86.26,74.23c.29-.85,1.6-1.99,1.99-2.77.36-.74,1.66-.67,2.32-.59.72.08,2.05.44,2.72.08.44-.25.44-.82.56-1.24.13-.42.31-.66.61-.97.61-.64.76-1.04,1.64-1.16"/>
        <path class="cls-1" d="m95.03,66.12c-1.24-.03-2.53-.29-3.75-.43-1.67-.19-3.47-.31-5.08-.75-.09-.47.68-1.38.94-1.79.33-.53.57-1.11.77-1.71.21-.6.38-1.27.5-1.9.13-.64.38-1.32.13-1.94-.07-.17-.15-.33-.24-.48-.17-.27-.37-.52-.6-.74-.61-.56-1.4-.92-2.23-.96-1.59-.07-2.39,1.62-3.91,1.82-1.05.15-1.27-.67-2.08-1.15-.52-.32-1.78-.64-2.37-.34"/>
        <path class="cls-1" d="m95.75,66.12c-.23.01-.47.01-.7,0"/>
        <path class="cls-1" d="m87.72,56.07c.12-1,.32-1.98.34-2.98.02-.99.22-1.89.66-2.78.2-.42.43-.87.68-1.31.63-1.13,1.4-2.27,2.34-3.01.77-.61,1.49-1.13,2.13-1.9l.36-.42c.41-.49.85-.97,1.36-1.37,1.64-1.29,3.34-2.45,4.8-3.93,1.36-1.38,3.41-3.01,4.62-4.63.09-.11.17-.22.24-.33"/>
        <path class="cls-1" d="m89.23,41.45c1.64.38,3.4.79,4.69,1.95"/>
        <path class="cls-1" d="m95.59,42.3c-1.27-.52-2.65-1.59-4.01-1.92-.21-.05-.44-.13-.69-.2-.49-.14-1.03-.24-1.43-.03-.61.32-.74.94-.4,1.42.04.06.09.12.14.17"/>
        <path class="cls-1" d="m90.89,40.18c.91-.51,1.78-2.02,2.52-2.76.43-.43.81-.94,1.18-1.42.19-.24.4-.47.54-.73.14-.25.27-1.26.47-1.47"/>
        <path class="cls-1" d="m88.72,50.31c-1.56-.18-4.25-1.02-5.79-1.31"/>
        <path class="cls-1" d="m89.4,49c-.33-1.22.09-3.06.17-4.32-.56-.05-1.38.48-1.9.74-.54.26-1.74.67-2.21,1.09-.01.01-.02.02-.04.03"/>
        <path class="cls-1" d="m86.87,78.5c.85-.13,2.11-.55,2.76-1.19.58-.57,1.14-1.15,1.84-1.58.1-.06.2-.12.31-.17,1.46-.8,3.32-1.09,4.88-1.55.97-.29,2.11-.5,3.11-.52h.04"/>
        <path class="cls-1" d="m99.51,76.9v-.02c.1-.46-1.16-.99-1.51-1.21-.6-.37-1.21-.45-1.85-.13-.51.25-1.1.57-1.55.92-.54.42-.67.96-1,1.49-.22-.74-.82-2.26-1.82-2.39h-.02"/>
        <path class="cls-1" d="m86.68,78.75c.79.03,2.35.37,3.16.46.82.1,1.61.22,2.4.44.7.19,1.41.39,2.1.62.65.21,1.42.68,2.09.73"/>
        <path class="cls-1" d="m94.11,83.47c-1.3-.2-2.61-.14-3.83-.67-1.1-.49-2.27-.9-3.26-1.59-.01,0-.01-.01-.02-.01"/>
        <path class="cls-1" d="m95.01,66.13s.01,0,.02-.01t.02,0c.64-.14,2.2-1,2.65-1.37.46-.39.97-.65,1.53-.87,1.22-.49,2.72-1.99,3.96-2.44"/>
        <path class="cls-1" d="m97.99,57.4c-1.51.17-3.4.27-4.93.38-1.4.11-3.49.02-4.74-.67"/>
        <path class="cls-1" d="m100.23,49.34s-.06.1-.09.16c-.35.63-1,1.92-1.1,2.49-.13.77-.36,1.49-.46,2.27-.13,1.07-.38,2.09-.58,3.14-.1.46-.18.92-.23,1.39-.03.23-.25,1.03-.12,1.19.1.13.88.1,1.07.12.72.09,1.39.23,2.07.44.82.25,1.62.56,2.4.9.56.24,1.11.49,1.66.73,1.36.61,3.51,1.3,4.95,1.66"/>
        <path class="cls-1" d="m99.56,49.65c.19-.03.39-.07.58-.15.75-.24,1.49-.74,2.12-1.14.8-.51,1.66-.92,2.48-1.39,1.01-.57,2.02-1.13,3.05-1.68.87-.47,1.75-.92,2.64-1.36,1.4-.7,2.78-1.39,4.19-2.05.72-.34,1.44-.67,2.18-.99.46-.21.89-.41,1.41-.24.6.2,1.07.71,1.66.96,1.13.47,2.37.69,3.54,1.09,1.08.36,2.12.84,3.21,1.19,1.12.36,2.8,1.74,3.92,2.11"/>
        <path class="cls-1" d="m126.32,57.87c.52-.67,1.16-2.61,1.36-3.43.25-.97.46-1.94.79-2.89.65-1.84,1.24-3.78,2.07-5.55.85-1.83,2.32-2.67,4.08-3.56,1.78-.9,3.65-1.56,5.62-1.94,1.84-.34,3.77-.64,5.63-.77"/>
        <path class="cls-1" d="m126.93,57.52c-.18.16-.39.26-.61.35-.34.13-.71.21-1.04.32-.22.07-.44.14-.65.22-.34.12-.67.25-1.01.38-1.11.42-2.24.75-3.34,1.19-.88.35-1.76.68-2.64,1-1.44.53-2.87,1.03-4.31,1.59-1.16.44-2.34.91-3.53,1.26-.1.04-.19.06-.29.09"/>
        <path class="cls-1" d="m124.58,58.26c-.29-1.22-1.3-2.35-1.89-3.42-.31-.57-.55-1.19-.86-1.77-.14-.28-.26-.75-.46-.97-.28-.31-.56-.14-.98-.08-1.4.19-3.62-.12-3.74-1.96-.04-.7.82-1.43,1.34-1.85.26-.22.7-.3.67-.6-.02-.29-.59-.82-.77-1.05-1.09-1.49-1.82-3.21-3.18-4.49"/>
        <path class="cls-1" d="m117.54,60.71c-.84-.76-1.4-1.82-1.99-2.77-.33-.54-.66-1.03-1.04-1.52-.45-.59-.85-.87-.71-1.64.11-.61.53-1.3.31-1.93-.19-.58-.98-1.01-1.53-1.22-.31-.11-.66-.2-.99-.19-.25,0-.63.2-.83.1-.42-.2-.62-1.48-.73-1.89-.22-.76-.54-1.49-.96-2.17-.41-.67-.76-1.44-1.21-2.07"/>
        <path class="cls-1" d="m105.91,53.86c.75.87.87,2.37,1.31,3.43.43,1.03,1.2,2.37,2.58,2.08"/>
        <path class="cls-1" d="m110.94,58.21c-.8.36-.95,1.65-.46,2.3"/>
        <path class="cls-1" d="m119.79,43.53c.84,1.14.83,2.12.52,3.43"/>
        <path class="cls-1" d="m124.75,52.64c-.41-1.27-2.21-2.18-3.44-2.33"/>
        <path class="cls-1" d="m100.29,27.82c-.03-.23-.06-.46-.06-.69.01-.44.2-.56.62-.58.33,0,.61.08.85.22.39.23.7.62.98,1,.45.63.49,1.4.9,2.04.25.37.53.7.77,1.07.25.37.35.77.47,1.19.1.34.23.68.26,1.04,0,.21-.04.42-.07.63,0,.01,0,.03,0,.04,0,.03-.02.06-.02.09"/>
        <path class="cls-1" d="m100.37,28.67v-.12c0-.23-.03-.46-.07-.69"/>
        <path class="cls-1" d="m100.3,27.86c.07.22.09.45.07.69"/>
        <path class="cls-1" d="m100.3,27.86s0-.03,0-.04"/>
        <path class="cls-1" d="m95.47,34.3c.11-.12.14-.3.14-.5,0-.22-.04-.46-.05-.63-.03-.37.03-.74.02-1.12-.02-.71-.14-1.44-.31-2.13,0-.02-.01-.03-.01-.05-.17-.74-.41-1.42-.32-2.2.08-.7.85-1.39,1.59-1.1.43.17.62.7.81,1.09.15.32.37.64.47.97.08-.35.06-.83-.07-1.17-.13-.32-.33-.77.1-.92.35-.13.95-.22,1.31-.12.37.09.78.68.98,1,.08.13.13.26.16.4"/>
        <path class="cls-1" d="m95.6,33.8c-.51-.02-1.67-.26-2.14-.46-.68-.28-.82-.51-.67-1.21.24-1.13,1.08-1.75,2.12-2.13"/>
        <path class="cls-1" d="m101.77,26.59c-.01-.56-.13-1.16-.24-1.71-.12-.63-.11-1.03.05-1.65.27-1.01,1.42-1.97,2.44-2.19.95-.2,2.47.03,3.31.53.82.49,1.61,1.41,2.03,2.32.06.13.12.26.16.39.17.5.11,1.02.1,1.55-.01.59.11,1.19.12,1.78.02,1.22.18,2.4.29,3.6.11,1.15.19,2.35.17,3.5,0,.25-.01.53-.04.83-.06.87-.27,1.82-.92,2.32-.89.66-2.48.33-3.04-.59-.35-.57-.28-1.16-.2-1.8.06-.51.29-1.36-.25-1.58-.21-.09-.38-.07-.62-.09"/>
        <path class="cls-1" d="m110.49,35.55h.08c.6,0,1.48-.43,1.99-.69"/>
        <path class="cls-1" d="m112.27,26.02c-1.18-.31-1.89-1.54-2.89-2.14"/>
        <path class="cls-1" d="m113.98,23.78s-.03.02-.04.04c-.31.3-.45.75-.73,1.09-.32.38-.53.76-.69,1.23-.29.84-.32,1.79-.32,2.66.01,1.1.07,2.13.22,3.23.14.92.1,1.89.33,2.79,0,.03,0,.06.02.09.23.85.73,1.85,1.55,2.23.48.23.9.39,1.36.06.46-.35.6-.74.86-1.22.3-.53.47-.93.51-1.56.03-.5-.02-.99-.02-1.48,0-1.05-.12-2.12-.05-3.16.07-1.32-.14-2.66-.38-3.96-.11-.59-.34-.93-.81-1.32-.34-.28-.82-.67-1.27-.75-.2-.04-.4.02-.58.07-.01,0-.02.01-.03.01"/>
        <path class="cls-1" d="m104.79,20.78c-.15-.56-.34-1.11-.43-1.69-.1-.64.02-1.34-.17-1.95"/>
        <path class="cls-1" d="m104.13,16.78h.04c.68.11,2.63-.43,2.92-1.07.21-.48-.32-1.03-.64-1.29-.44-.36-.99-.48-1.52-.59-1.05-.23-1.98-.25-3.02.02-.5.14-.97.34-1.2.83-.28.56-.07,1.06.44,1.38.92.61,1.93.66,3.01.79"/>
        <path class="cls-1" d="m103.88,13.41c.1-.54-.04-1.24-.2-1.76-.07-.26-.16-.52-.21-.79-.05-.25-.02-.58-.15-.82,0-.03-.02-.05-.03-.07"/>
        <path class="cls-1" d="m103.26,9.93h.02c.46-.15,1.05-.02,1.54-.11.4-.06.86-.25,1.21-.46.41-.25.76-.81.3-1.19-.34-.28-.94-.33-1.36-.35-.97-.07-1.94-.19-2.91-.28-.67-.06-2.7.29-1.9,1.36.66.87,2.1,1.19,3.16,1.14h.06"/>
        <path class="cls-1" d="m103.14,7.41c-.18-.51-.22-1.08-.29-1.61-.07-.46-.02-1.16-.21-1.56"/>
        <path class="cls-1" d="m102.62,3.88c.29-.24.56-.26.8-.57.23-.3.49-.54.47-.93-.04-.83-.59-1.34-1.33-1.61-.79-.29-1.48-.49-2.15.17-.63.61-.83,1.35-.04,1.92.67.49,1.5.64,2.22,1.02"/>
        <path class="cls-1" d="m107.95,24.41c-.1,1.15-.29,2.19-.13,3.36.15,1.06.21,2.13.28,3.21"/>
        <path class="cls-1" d="m146.43,39.93s-.02-.03-.02-.04"/>
        <path class="cls-1" d="m146.45,39.96s-.02-.01-.01-.02"/>
        <path class="cls-1" d="m147.28,40.44c-.12,0-.26-.03-.38-.07-.19-.06-.37-.21-.45-.4"/>
        <path class="cls-1" d="m147.2,38.46c.18.13.33.3.43.45.06.09.11.21.16.33.09.26.12.56.07.79-.07.32-.3.42-.57.41"/>
        <path class="cls-1" d="m146.08,39.45s-.06-.08-.09-.12c-.03-.05-.06-.11-.08-.16-.2-.39-.22-.82.14-1.05.09-.06.17-.09.26-.09.2-.05.4.02.58.15.09.06.18.14.27.25.01,0,.03.01.04.03.28.32.49.75.55,1.02,0,.01,0,.03,0,.04.03.12.03.23,0,.32-.02.21-.12.37-.26.47-.06.06-.13.1-.21.13h-.01c-.36.13-.83.02-1.14-.36-.34-.41-.89-1.89-.05-2.05.07-.01.14-.02.22,0,.15,0,.31.05.46.13.14.07.27.16.39.27"/>
        <path class="cls-1" d="m146.18,39.6s-.06-.08-.09-.13"/>
        <path class="cls-1" d="m146.33,39.75l-.14-.14"/>
        <path class="cls-1" d="m146.41,39.82l-.04-.04h-.01"/>
        <path class="cls-1" d="m146.73,40.01s-.05-.02-.08-.03c-.07-.04-.14-.08-.2-.14"/>
        <path class="cls-1" d="m147.11,40.06c-.07.01-.14.01-.21,0-.05-.01-.11-.02-.17-.04"/>
        <path class="cls-1" d="m147.72,39.62c-.05.12-.12.22-.22.3s-.23.13-.38.14"/>
        <path class="cls-1" d="m146.2,39s-.01-.06-.01-.1c-.01-.04-.01-.09,0-.14,0-.06.01-.11.02-.16s.03-.1.05-.15c.11-.22.3-.3.51-.29.04,0,.08.01.12.02.2.03.4.14.54.26.23.21.35.51.36.8,0,.1-.01.19-.04.28,0,.03-.01.06-.03.09"/>
        <path class="cls-1" d="m146.69,39.98s-.03-.04-.04-.06c-.1-.12-.19-.25-.25-.36-.05-.09-.1-.19-.14-.3-.03-.07-.05-.15-.06-.24"/>
        <path class="cls-1" d="m147.09,40.29s-.1-.05-.15-.09c-.07-.04-.14-.11-.21-.18h0s-.03-.03-.03-.04"/>
        <path class="cls-1" d="m147.32,38.94c.16.2.29.41.36.56.02.04.03.07.04.11h0c.02.08.04.16.04.23.01.21-.06.4-.26.47-.04.02-.08.03-.13.04-.09.01-.18-.01-.26-.05"/>
        <path class="cls-1" d="m146.92,38.57c.13.08.25.2.37.33"/>
        <path class="cls-1" d="m146.06,38.85c.05-.1.1-.19.15-.25.19-.22.44-.2.67-.05"/>
        <path class="cls-1" d="m146.22,39.66c-.06-.05-.1-.12-.13-.19,0,0-.02,0,0-.02-.03-.04-.05-.08-.06-.13-.03-.14-.03-.29.03-.45,0,0,0-.01.01-.01"/>
        <path class="cls-1" d="m146.84,39.95c-.06,0-.13-.01-.19-.03-.07-.02-.14-.04-.2-.08-.01-.01-.03-.01-.04-.02-.01,0-.02-.01-.03-.02-.01,0-.02-.02-.02-.02-.01,0-.02-.01-.03-.03-.04-.01-.07-.04-.09-.06"/>
        <path class="cls-1" d="m147.44,39.7c-.05.08-.12.15-.22.19-.02.01-.03.01-.05.02-.1.04-.21.05-.32.04"/>
        <path class="cls-1" d="m146.41,39.92c-.07-.07-.13-.15-.17-.23-.01-.01-.01-.02-.02-.03,0-.02-.02-.04-.03-.05,0-.01-.01-.01-.01-.01-.03-.1-.06-.2-.07-.3-.01-.11,0-.22.04-.33.01-.02.02-.05.04-.07.03-.07.08-.14.14-.19.11-.11.26-.18.41-.18.05,0,.09.01.14.02,0,.01.02.01.04.02.14.06.27.18.37.33,0,.01.02.03.03.04.15.24.22.54.12.75"/>
        <path class="cls-1" d="m146.58,40.08c-.05-.04-.09-.07-.13-.11h0s-.03-.03-.03-.04"/>
        <path class="cls-1" d="m147.23,39.36c.08.1.15.22.21.33h0c.03.09.05.16.06.23,0,.06,0,.11-.02.16-.06.18-.21.23-.37.22-.01,0-.02,0-.02,0-.1,0-.2-.03-.29-.08"/>
        <path class="cls-1" d="m146.74,38.79c.15.1.28.27.39.42.03.04.06.09.1.14"/>
        <path class="cls-1" d="m146.47,39.94h-.04s0-.01,0-.01h-.01c-.24-.1-.45-.32-.5-.57-.01-.01-.01-.03-.01-.04-.01-.05-.01-.1.01-.15,0-.12.05-.22.14-.3h.01v-.02s.07-.07.13-.09c.02-.02.05-.03.08-.04.02,0,.04,0,.06,0,.14-.03.26,0,.37.06"/>
        <path class="cls-1" d="m145.87,39.37s.02-.01.04-.01c.02-.01.05-.02.08-.03.01-.01.02-.01.03-.01.03-.01.06-.02.09-.02.02-.02.05-.02.07-.02.02-.01.05-.01.08-.02.32-.06.66-.02.82.24.05.07.07.15.09.22,0,.06,0,.13,0,.19-.01.05-.03.11-.05.15,0,0,0,.01-.01,0-.04.07-.1.13-.17.14-.05.02-.09.02-.14.01,0,0-.02,0-.03-.01-.05-.02-.1-.05-.15-.09-.01-.01-.02-.02-.03-.02h0s0-.01,0-.01t-.02-.03s-.06-.06-.09-.1h0c-.03-.06-.06-.1-.09-.15t-.01-.02c-.09-.15-.16-.33-.19-.5,0-.09,0-.18.02-.26v-.02c.04-.09.11-.17.22-.22.09-.04.19-.04.28-.01.02,0,.03.01.04.02.23.07.44.32.49.56h0c.02.14.01.27-.06.37-.08.13-.19.2-.32.23h-.01s-.09.03-.14.03h-.05l-.18-.03"/>
      </g>
    </g>
  </g>
</svg>